<svg width="300" height="427" viewBox="0 0 300 427" fill="none" xmlns="http://www.w3.org/2000/svg">
    <path d="M68 0C71.8658 0 74.9651 3.14383 75.3213 6.99316C78.8484 45.1355 110.937 75 150 75C191.098 75 224.475 41.9441 224.994 0.969727C224.997 0.433222 225.433 9.4661e-06 225.97 0H293C296.866 0 300.017 3.14003 299.84 7.00195C297.516 57.5743 270.148 101.61 229.852 127H250C277.614 127 300 149.386 300 177V377C300 404.614 277.614 427 250 427H50C22.3858 427 8.0543e-07 404.614 0 377V177C3.22172e-06 149.386 22.3858 127 50 127H70.1484C29.8521 101.61 2.48394 57.5743 0.160156 7.00195C-0.0172967 3.14003 3.13401 1.61376e-08 7 0H68Z" fill="url(#paint0_linear_2_91)"/>
    <defs>
        <linearGradient id="paint0_linear_2_91" x1="-62.2828" y1="150" x2="332.415" y2="0.268018" gradientUnits="userSpaceOnUse">
            <stop stop-color="#FFBD59"/>
            <stop offset="0.283654" stop-color="#FF914D"/>
            <stop offset="0.625" stop-color="#CB6CE6"/>
            <stop offset="1" stop-color="#1800AD"/>
        </linearGradient>
    </defs>
</svg>
